<svg xmlns="http://www.w3.org/2000/svg" xmlns:xlink="http://www.w3.org/1999/xlink" width="500" zoomAndPan="magnify" viewBox="0 0 375 374.999991" height="500" preserveAspectRatio="xMidYMid meet" version="1.0"><defs><clipPath id="id1"><path d="M 32.8125 93 L 342.5625 93 L 342.5625 375 L 32.8125 375 Z M 32.8125 93 " clip-rule="nonzero"/></clipPath></defs><g clip-path="url(#id1)"><path fill="rgb(85.099792%, 1.568604%, 16.079712%)" d="M 317.339844 190.246094 C 298.828125 186.738281 289.988281 165.421875 300.59375 149.863281 L 315.039062 128.675781 L 279.355469 93.03125 L 258.136719 107.464844 C 251.453125 112.007812 243.710938 112.96875 236.765625 111.128906 C 243.648438 122.8125 246.96875 131.328125 248.8125 140.550781 C 272.757812 158.898438 288.207031 187.757812 288.207031 220.230469 C 288.207031 275.679688 243.203125 320.628906 187.6875 320.628906 C 132.171875 320.628906 87.167969 275.679688 87.167969 220.230469 C 87.167969 193.191406 97.890625 168.667969 115.292969 150.617188 C 114.472656 138.09375 115.089844 123.917969 118.910156 108.507812 C 118.347656 108.179688 117.789062 107.835938 117.238281 107.464844 L 96.019531 93.03125 L 60.335938 128.675781 L 74.78125 149.863281 C 85.386719 165.421875 76.546875 186.738281 58.035156 190.246094 L 32.816406 195.027344 L 32.816406 245.433594 L 58.035156 250.214844 C 76.546875 253.726562 85.386719 275.042969 74.78125 290.597656 L 60.335938 311.789062 L 96.019531 347.429688 L 117.238281 333 C 132.8125 322.410156 154.152344 331.238281 157.667969 349.726562 L 162.453125 374.914062 L 212.921875 374.914062 L 217.707031 349.726562 C 221.222656 331.238281 242.5625 322.410156 258.136719 333 L 279.355469 347.429688 L 315.039062 311.789062 L 300.59375 290.597656 C 289.988281 275.042969 298.828125 253.726562 317.339844 250.214844 L 342.558594 245.433594 L 342.558594 195.027344 L 317.339844 190.246094 " fill-opacity="1" fill-rule="nonzero"/></g><path fill="rgb(93.728638%, 13.729858%, 23.529053%)" d="M 268.875 188.496094 C 263.480469 198.28125 254.890625 204.609375 245.207031 204.609375 C 228.878906 204.609375 245.726562 165.320312 242.25 144.507812 C 239.574219 128.464844 232.59375 115.328125 207.539062 80.597656 C 187.6875 53.085938 187.6875 0.0820312 187.6875 0.0820312 C 160.953125 66.84375 168.832031 75.296875 172.296875 101.234375 C 174.726562 119.441406 167.511719 146.355469 152.175781 143.042969 C 141.472656 140.730469 133.539062 117.976562 136.007812 82.8125 C 108.210938 138.953125 130.578125 182.097656 130.828125 201.34375 C 130.976562 212.703125 120.441406 215.734375 118.152344 204.40625 C 116.210938 194.820312 112.820312 181.238281 101.792969 177.570312 C 112.339844 189.300781 100.59375 204.40625 100.59375 218.972656 C 100.59375 255.761719 123.46875 287.195312 155.78125 299.910156 C 153.675781 287.898438 145.4375 265.988281 159.097656 238.394531 C 157.730469 257.847656 162.121094 270.433594 168.042969 271.710938 C 176.527344 273.546875 180.515625 258.65625 179.171875 248.585938 C 177.257812 234.238281 172.898438 229.5625 187.6875 192.632812 C 187.6875 192.632812 187.6875 221.949219 198.667969 237.171875 C 212.53125 256.382812 216.390625 263.648438 217.871094 272.523438 C 219.257812 280.820312 214.804688 294.421875 215.59375 301.375 C 250 289.753906 274.78125 257.265625 274.78125 218.972656 C 274.78125 209.75 272.597656 199.542969 268.875 188.496094 " fill-opacity="1" fill-rule="nonzero"/></svg>