<svg xmlns="http://www.w3.org/2000/svg" xmlns:xlink="http://www.w3.org/1999/xlink" width="500" zoomAndPan="magnify" viewBox="0 0 375 374.999991" height="500" preserveAspectRatio="xMidYMid meet" version="1.0"><defs><clipPath id="id1"><path d="M 71 12.324219 L 304 12.324219 L 304 350.574219 L 71 350.574219 Z M 71 12.324219 " clip-rule="nonzero"/></clipPath><clipPath id="id2"><path d="M 233.625 334.164062 C 233.699219 334.164062 254.382812 338.488281 263.957031 318.121094 C 253.214844 320.902344 238.082031 321.34375 223.539062 317.167969 C 207.09375 312.40625 191.304688 301.855469 183.195312 282.292969 C 182.753906 281.195312 182.242188 279.949219 181.804688 278.558594 C 171.863281 249.765625 170.695312 223.320312 170.988281 209.179688 C 165.359375 217.898438 159.878906 227.640625 155.929688 239.363281 C 150.523438 255.261719 147.820312 274.96875 151.109375 301.34375 L 151.691406 306.105469 L 147.234375 304.347656 C 147.160156 304.347656 126.476562 296.582031 109.300781 268.230469 C 108.933594 278.191406 109.226562 288.523438 111.128906 298.558594 C 113.6875 311.746094 119.167969 324.492188 130.132812 335.335938 L 145.554688 350.5 L 126.695312 339.878906 C 109.082031 329.988281 96 321.5625 86.9375 309.988281 C 77.800781 298.339844 73.046875 283.6875 72.171875 261.414062 L 71.441406 242.808594 L 77.726562 260.390625 C 78.824219 263.464844 79.042969 263.980469 79.1875 264.566406 L 79.992188 266.835938 C 77.214844 251.816406 76.117188 232.332031 84.160156 217.457031 C 88.398438 209.617188 93.585938 202 98.628906 194.746094 C 110.398438 177.605469 121.066406 162.070312 114.34375 149.691406 L 108.277344 138.480469 L 118.582031 145.953125 C 136.5625 159.070312 133.054688 168.226562 127.71875 182 C 127.132812 183.539062 126.476562 185.222656 125.746094 187.347656 C 122.675781 195.917969 120.335938 207.273438 121.507812 219.070312 C 122.089844 224.859375 123.554688 230.71875 126.257812 236.433594 C 126.84375 217.019531 131.300781 175.1875 157.90625 148.519531 C 161.484375 144.929688 166.308594 140.167969 171.0625 135.476562 C 199.492188 107.273438 222.734375 84.269531 219.738281 71.742188 C 218.203125 65.511719 214.839844 65.585938 211.40625 65.660156 C 206.214844 65.734375 200.953125 65.878906 197.519531 57.675781 C 191.015625 41.996094 222.515625 21.703125 222.660156 21.703125 L 236.914062 12.398438 L 226.460938 25.878906 C 226.390625 25.953125 204.972656 53.351562 222.953125 55.988281 C 235.746094 57.894531 243.636719 60.972656 245.246094 70.496094 C 246.636719 78.921875 241.882812 92.398438 229.53125 115.109375 C 217.691406 136.871094 208.847656 157.164062 208.773438 171.375 C 208.703125 184.269531 216.816406 191.964844 238.523438 190.425781 C 244.222656 190.058594 247.804688 186.980469 249.265625 183.246094 C 249.851562 181.707031 250.070312 180.09375 249.925781 178.484375 C 249.777344 176.945312 249.191406 175.40625 248.316406 174.015625 C 245.976562 170.570312 241.082031 168.300781 233.257812 169.324219 C 226.535156 170.203125 222.222656 168.59375 220.03125 165.441406 C 218.421875 163.246094 217.984375 160.535156 218.347656 157.457031 C 218.714844 154.746094 219.738281 151.816406 221.273438 148.957031 C 226.242188 139.726562 236.914062 130.277344 247.367188 129.910156 L 253.285156 129.765625 L 249.703125 134.527344 C 248.390625 136.355469 246.925781 138.117188 245.683594 139.652344 C 243.566406 142.292969 241.8125 144.488281 241.007812 146.246094 C 238.886719 150.863281 244.734375 154.964844 273.167969 168.007812 L 273.386719 168.152344 C 276.457031 169.910156 278.648438 172.183594 279.964844 174.746094 C 281.5 177.605469 281.9375 180.902344 281.5 184.34375 C 281.058594 187.640625 279.816406 191.082031 277.769531 194.601562 C 272.433594 203.832031 261.617188 213.722656 246.707031 221.632812 C 234.28125 228.226562 226.828125 236.945312 222.953125 246.03125 C 220.175781 252.625 219.226562 259.363281 219.59375 265.664062 C 221.273438 260.609375 223.976562 258.117188 230.992188 254.457031 L 238.8125 250.351562 L 234.867188 258.265625 C 234.0625 259.875 233.257812 261.636719 232.601562 263.539062 C 231.140625 267.570312 230.191406 271.820312 230.410156 275.480469 C 230.554688 278.484375 231.503906 280.902344 233.699219 282 C 233.992188 282.148438 234.210938 282.222656 234.355469 282.292969 C 236.402344 283.027344 238.667969 283.246094 240.714844 282.734375 C 242.101562 282.441406 243.347656 281.78125 244.515625 280.757812 C 245.683594 279.730469 246.707031 278.265625 247.367188 276.289062 C 248.902344 272.039062 249.121094 265.664062 246.925781 256.507812 C 245.027344 248.226562 245.683594 240.753906 248.316406 234.746094 C 250.363281 229.984375 253.652344 226.25 257.816406 223.757812 C 261.984375 221.269531 266.953125 220.09375 272.433594 220.609375 C 279.523438 221.269531 287.492188 224.710938 295.53125 231.671875 L 303.132812 238.335938 L 293.121094 236.726562 C 283.910156 235.1875 275.722656 235.1875 270.167969 236.871094 C 267.683594 237.605469 265.855469 238.628906 264.835938 239.949219 C 263.957031 241.121094 263.589844 242.585938 263.957031 244.492188 C 264.542969 247.203125 266.441406 250.574219 270.023438 254.75 C 276.015625 261.636719 283.105469 271.597656 288.148438 282.589844 C 292.386719 291.746094 295.167969 301.710938 294.875 311.234375 C 294.507812 321.050781 290.925781 330.355469 282.230469 337.972656 C 278.792969 340.976562 274.628906 343.6875 269.511719 346.03125 L 269.144531 346.179688 C 251.457031 351.746094 239.546875 344.566406 233.40625 340.90625 C 232.675781 340.464844 232.089844 340.097656 231.503906 339.804688 L 214.769531 330.722656 L 233.480469 334.382812 Z M 233.625 334.164062 " clip-rule="nonzero"/></clipPath><linearGradient x1="36.346892" gradientTransform="matrix(7.308895, 0, 0, 7.326186, 71.367648, 12.32495)" y1="4.739345" x2="-2.891507" gradientUnits="userSpaceOnUse" y2="43.210634" xlink:type="simple" xlink:actuate="onLoad" id="id3" xlink:show="other"><stop stop-opacity="1" stop-color="rgb(50.814819%, 44.366455%, 97.869873%)" offset="0"/><stop stop-opacity="1" stop-color="rgb(50.769043%, 44.499207%, 97.846985%)" offset="0.0078125"/><stop stop-opacity="1" stop-color="rgb(50.680542%, 44.766235%, 97.799683%)" offset="0.015625"/><stop stop-opacity="1" stop-color="rgb(50.590515%, 45.031738%, 97.75238%)" offset="0.0234375"/><stop stop-opacity="1" stop-color="rgb(50.500488%, 45.298767%, 97.706604%)" offset="0.03125"/><stop stop-opacity="1" stop-color="rgb(50.411987%, 45.56427%, 97.659302%)" offset="0.0390625"/><stop stop-opacity="1" stop-color="rgb(50.32196%, 45.831299%, 97.613525%)" offset="0.046875"/><stop stop-opacity="1" stop-color="rgb(50.233459%, 46.096802%, 97.566223%)" offset="0.0546875"/><stop stop-opacity="1" stop-color="rgb(50.143433%, 46.363831%, 97.520447%)" offset="0.0625"/><stop stop-opacity="1" stop-color="rgb(50.053406%, 46.629333%, 97.473145%)" offset="0.0703125"/><stop stop-opacity="1" stop-color="rgb(49.964905%, 46.896362%, 97.427368%)" offset="0.078125"/><stop stop-opacity="1" stop-color="rgb(49.874878%, 47.163391%, 97.380066%)" offset="0.0859375"/><stop stop-opacity="1" stop-color="rgb(49.786377%, 47.428894%, 97.332764%)" offset="0.09375"/><stop stop-opacity="1" stop-color="rgb(49.69635%, 47.695923%, 97.286987%)" offset="0.101562"/><stop stop-opacity="1" stop-color="rgb(49.606323%, 47.961426%, 97.239685%)" offset="0.109375"/><stop stop-opacity="1" stop-color="rgb(49.517822%, 48.228455%, 97.193909%)" offset="0.117188"/><stop stop-opacity="1" stop-color="rgb(49.427795%, 48.493958%, 97.146606%)" offset="0.125"/><stop stop-opacity="1" stop-color="rgb(49.339294%, 48.760986%, 97.10083%)" offset="0.132812"/><stop stop-opacity="1" stop-color="rgb(49.249268%, 49.026489%, 97.053528%)" offset="0.140625"/><stop stop-opacity="1" stop-color="rgb(49.159241%, 49.293518%, 97.007751%)" offset="0.148438"/><stop stop-opacity="1" stop-color="rgb(49.07074%, 49.560547%, 96.960449%)" offset="0.15625"/><stop stop-opacity="1" stop-color="rgb(48.980713%, 49.82605%, 96.914673%)" offset="0.164063"/><stop stop-opacity="1" stop-color="rgb(48.892212%, 50.093079%, 96.867371%)" offset="0.171875"/><stop stop-opacity="1" stop-color="rgb(48.802185%, 50.358582%, 96.820068%)" offset="0.179688"/><stop stop-opacity="1" stop-color="rgb(48.712158%, 50.62561%, 96.774292%)" offset="0.1875"/><stop stop-opacity="1" stop-color="rgb(48.623657%, 50.891113%, 96.72699%)" offset="0.195313"/><stop stop-opacity="1" stop-color="rgb(48.53363%, 51.158142%, 96.681213%)" offset="0.203125"/><stop stop-opacity="1" stop-color="rgb(48.445129%, 51.425171%, 96.633911%)" offset="0.210938"/><stop stop-opacity="1" stop-color="rgb(48.355103%, 51.690674%, 96.588135%)" offset="0.21875"/><stop stop-opacity="1" stop-color="rgb(48.265076%, 51.957703%, 96.540833%)" offset="0.226562"/><stop stop-opacity="1" stop-color="rgb(48.176575%, 52.223206%, 96.495056%)" offset="0.234375"/><stop stop-opacity="1" stop-color="rgb(48.086548%, 52.490234%, 96.447754%)" offset="0.242188"/><stop stop-opacity="1" stop-color="rgb(47.998047%, 52.755737%, 96.401978%)" offset="0.25"/><stop stop-opacity="1" stop-color="rgb(47.90802%, 53.022766%, 96.354675%)" offset="0.257812"/><stop stop-opacity="1" stop-color="rgb(47.817993%, 53.288269%, 96.307373%)" offset="0.265625"/><stop stop-opacity="1" stop-color="rgb(47.729492%, 53.555298%, 96.261597%)" offset="0.273438"/><stop stop-opacity="1" stop-color="rgb(47.639465%, 53.822327%, 96.214294%)" offset="0.28125"/><stop stop-opacity="1" stop-color="rgb(47.550964%, 54.08783%, 96.168518%)" offset="0.289063"/><stop stop-opacity="1" stop-color="rgb(47.460938%, 54.354858%, 96.121216%)" offset="0.296875"/><stop stop-opacity="1" stop-color="rgb(47.370911%, 54.620361%, 96.075439%)" offset="0.304688"/><stop stop-opacity="1" stop-color="rgb(47.28241%, 54.88739%, 96.028137%)" offset="0.3125"/><stop stop-opacity="1" stop-color="rgb(47.192383%, 55.152893%, 95.982361%)" offset="0.320313"/><stop stop-opacity="1" stop-color="rgb(47.103882%, 55.419922%, 95.935059%)" offset="0.328125"/><stop stop-opacity="1" stop-color="rgb(47.013855%, 55.686951%, 95.889282%)" offset="0.335938"/><stop stop-opacity="1" stop-color="rgb(46.923828%, 55.952454%, 95.84198%)" offset="0.34375"/><stop stop-opacity="1" stop-color="rgb(46.835327%, 56.219482%, 95.794678%)" offset="0.351562"/><stop stop-opacity="1" stop-color="rgb(46.7453%, 56.484985%, 95.748901%)" offset="0.359375"/><stop stop-opacity="1" stop-color="rgb(46.656799%, 56.752014%, 95.701599%)" offset="0.367188"/><stop stop-opacity="1" stop-color="rgb(46.566772%, 57.017517%, 95.655823%)" offset="0.375"/><stop stop-opacity="1" stop-color="rgb(46.476746%, 57.284546%, 95.608521%)" offset="0.382812"/><stop stop-opacity="1" stop-color="rgb(46.388245%, 57.550049%, 95.562744%)" offset="0.390625"/><stop stop-opacity="1" stop-color="rgb(46.298218%, 57.817078%, 95.515442%)" offset="0.398438"/><stop stop-opacity="1" stop-color="rgb(46.208191%, 58.084106%, 95.469666%)" offset="0.40625"/><stop stop-opacity="1" stop-color="rgb(46.11969%, 58.349609%, 95.422363%)" offset="0.411915"/><stop stop-opacity="1" stop-color="rgb(46.075439%, 58.483887%, 95.399475%)" offset="0.414062"/><stop stop-opacity="1" stop-color="rgb(46.029663%, 58.616638%, 95.375061%)" offset="0.421875"/><stop stop-opacity="1" stop-color="rgb(45.941162%, 58.882141%, 95.329285%)" offset="0.429687"/><stop stop-opacity="1" stop-color="rgb(45.851135%, 59.14917%, 95.281982%)" offset="0.4375"/><stop stop-opacity="1" stop-color="rgb(45.761108%, 59.414673%, 95.236206%)" offset="0.445313"/><stop stop-opacity="1" stop-color="rgb(45.672607%, 59.681702%, 95.188904%)" offset="0.453125"/><stop stop-opacity="1" stop-color="rgb(45.582581%, 59.947205%, 95.143127%)" offset="0.460938"/><stop stop-opacity="1" stop-color="rgb(45.49408%, 60.214233%, 95.095825%)" offset="0.46875"/><stop stop-opacity="1" stop-color="rgb(45.404053%, 60.481262%, 95.050049%)" offset="0.476562"/><stop stop-opacity="1" stop-color="rgb(45.314026%, 60.746765%, 95.002747%)" offset="0.484375"/><stop stop-opacity="1" stop-color="rgb(45.225525%, 61.013794%, 94.95697%)" offset="0.492188"/><stop stop-opacity="1" stop-color="rgb(45.135498%, 61.279297%, 94.909668%)" offset="0.5"/><stop stop-opacity="1" stop-color="rgb(45.046997%, 61.546326%, 94.862366%)" offset="0.507812"/><stop stop-opacity="1" stop-color="rgb(44.95697%, 61.811829%, 94.816589%)" offset="0.515625"/><stop stop-opacity="1" stop-color="rgb(44.866943%, 62.078857%, 94.769287%)" offset="0.523438"/><stop stop-opacity="1" stop-color="rgb(44.778442%, 62.345886%, 94.723511%)" offset="0.53125"/><stop stop-opacity="1" stop-color="rgb(44.688416%, 62.611389%, 94.676208%)" offset="0.539062"/><stop stop-opacity="1" stop-color="rgb(44.599915%, 62.878418%, 94.630432%)" offset="0.546875"/><stop stop-opacity="1" stop-color="rgb(44.509888%, 63.143921%, 94.58313%)" offset="0.554688"/><stop stop-opacity="1" stop-color="rgb(44.419861%, 63.41095%, 94.537354%)" offset="0.5625"/><stop stop-opacity="1" stop-color="rgb(44.33136%, 63.676453%, 94.490051%)" offset="0.570313"/><stop stop-opacity="1" stop-color="rgb(44.241333%, 63.943481%, 94.444275%)" offset="0.578125"/><stop stop-opacity="1" stop-color="rgb(44.152832%, 64.208984%, 94.396973%)" offset="0.585938"/><stop stop-opacity="1" stop-color="rgb(44.062805%, 64.476013%, 94.34967%)" offset="0.588085"/><stop stop-opacity="1" stop-color="rgb(44.018555%, 64.610291%, 94.326782%)" offset="0.59375"/><stop stop-opacity="1" stop-color="rgb(43.972778%, 64.743042%, 94.303894%)" offset="0.601562"/><stop stop-opacity="1" stop-color="rgb(43.884277%, 65.008545%, 94.256592%)" offset="0.609375"/><stop stop-opacity="1" stop-color="rgb(43.79425%, 65.275574%, 94.210815%)" offset="0.617188"/><stop stop-opacity="1" stop-color="rgb(43.70575%, 65.541077%, 94.163513%)" offset="0.625"/><stop stop-opacity="1" stop-color="rgb(43.615723%, 65.808105%, 94.117737%)" offset="0.632812"/><stop stop-opacity="1" stop-color="rgb(43.525696%, 66.073608%, 94.070435%)" offset="0.640625"/><stop stop-opacity="1" stop-color="rgb(43.437195%, 66.340637%, 94.024658%)" offset="0.648438"/><stop stop-opacity="1" stop-color="rgb(43.347168%, 66.607666%, 93.977356%)" offset="0.65625"/><stop stop-opacity="1" stop-color="rgb(43.258667%, 66.873169%, 93.930054%)" offset="0.664062"/><stop stop-opacity="1" stop-color="rgb(43.16864%, 67.140198%, 93.884277%)" offset="0.671875"/><stop stop-opacity="1" stop-color="rgb(43.078613%, 67.405701%, 93.836975%)" offset="0.679687"/><stop stop-opacity="1" stop-color="rgb(42.990112%, 67.672729%, 93.791199%)" offset="0.6875"/><stop stop-opacity="1" stop-color="rgb(42.900085%, 67.938232%, 93.743896%)" offset="0.695312"/><stop stop-opacity="1" stop-color="rgb(42.811584%, 68.205261%, 93.69812%)" offset="0.703125"/><stop stop-opacity="1" stop-color="rgb(42.721558%, 68.470764%, 93.650818%)" offset="0.710938"/><stop stop-opacity="1" stop-color="rgb(42.631531%, 68.737793%, 93.605042%)" offset="0.71875"/><stop stop-opacity="1" stop-color="rgb(42.54303%, 69.004822%, 93.557739%)" offset="0.726562"/><stop stop-opacity="1" stop-color="rgb(42.453003%, 69.270325%, 93.511963%)" offset="0.734375"/><stop stop-opacity="1" stop-color="rgb(42.364502%, 69.537354%, 93.464661%)" offset="0.742188"/><stop stop-opacity="1" stop-color="rgb(42.274475%, 69.802856%, 93.417358%)" offset="0.75"/><stop stop-opacity="1" stop-color="rgb(42.184448%, 70.069885%, 93.371582%)" offset="0.757812"/><stop stop-opacity="1" stop-color="rgb(42.095947%, 70.335388%, 93.32428%)" offset="0.765625"/><stop stop-opacity="1" stop-color="rgb(42.00592%, 70.602417%, 93.278503%)" offset="0.773438"/><stop stop-opacity="1" stop-color="rgb(41.917419%, 70.86792%, 93.231201%)" offset="0.78125"/><stop stop-opacity="1" stop-color="rgb(41.827393%, 71.134949%, 93.185425%)" offset="0.789062"/><stop stop-opacity="1" stop-color="rgb(41.737366%, 71.401978%, 93.138123%)" offset="0.796875"/><stop stop-opacity="1" stop-color="rgb(41.648865%, 71.66748%, 93.092346%)" offset="0.804688"/><stop stop-opacity="1" stop-color="rgb(41.558838%, 71.934509%, 93.045044%)" offset="0.8125"/><stop stop-opacity="1" stop-color="rgb(41.470337%, 72.200012%, 92.999268%)" offset="0.820313"/><stop stop-opacity="1" stop-color="rgb(41.38031%, 72.467041%, 92.951965%)" offset="0.828125"/><stop stop-opacity="1" stop-color="rgb(41.290283%, 72.732544%, 92.904663%)" offset="0.835938"/><stop stop-opacity="1" stop-color="rgb(41.201782%, 72.999573%, 92.858887%)" offset="0.84375"/><stop stop-opacity="1" stop-color="rgb(41.111755%, 73.266602%, 92.811584%)" offset="0.851562"/><stop stop-opacity="1" stop-color="rgb(41.023254%, 73.532104%, 92.765808%)" offset="0.859375"/><stop stop-opacity="1" stop-color="rgb(40.933228%, 73.799133%, 92.718506%)" offset="0.867188"/><stop stop-opacity="1" stop-color="rgb(40.843201%, 74.064636%, 92.672729%)" offset="0.875"/><stop stop-opacity="1" stop-color="rgb(40.7547%, 74.331665%, 92.625427%)" offset="0.882812"/><stop stop-opacity="1" stop-color="rgb(40.664673%, 74.597168%, 92.579651%)" offset="0.890625"/><stop stop-opacity="1" stop-color="rgb(40.576172%, 74.864197%, 92.532349%)" offset="0.898438"/><stop stop-opacity="1" stop-color="rgb(40.486145%, 75.1297%, 92.485046%)" offset="0.90625"/><stop stop-opacity="1" stop-color="rgb(40.396118%, 75.396729%, 92.43927%)" offset="0.914062"/><stop stop-opacity="1" stop-color="rgb(40.307617%, 75.663757%, 92.391968%)" offset="0.921875"/><stop stop-opacity="1" stop-color="rgb(40.21759%, 75.92926%, 92.346191%)" offset="0.929687"/><stop stop-opacity="1" stop-color="rgb(40.129089%, 76.196289%, 92.298889%)" offset="0.9375"/><stop stop-opacity="1" stop-color="rgb(40.039062%, 76.461792%, 92.253113%)" offset="0.945312"/><stop stop-opacity="1" stop-color="rgb(39.949036%, 76.728821%, 92.205811%)" offset="0.953125"/><stop stop-opacity="1" stop-color="rgb(39.860535%, 76.994324%, 92.160034%)" offset="0.960938"/><stop stop-opacity="1" stop-color="rgb(39.770508%, 77.261353%, 92.112732%)" offset="0.96875"/><stop stop-opacity="1" stop-color="rgb(39.682007%, 77.526855%, 92.066956%)" offset="0.976562"/><stop stop-opacity="1" stop-color="rgb(39.59198%, 77.793884%, 92.019653%)" offset="0.984375"/><stop stop-opacity="1" stop-color="rgb(39.501953%, 78.060913%, 91.972351%)" offset="0.992188"/><stop stop-opacity="1" stop-color="rgb(39.413452%, 78.326416%, 91.926575%)" offset="1"/></linearGradient></defs><g clip-path="url(#id1)"><g clip-path="url(#id2)"><path fill="url(#id3)" d="M 71.441406 12.398438 L 71.441406 350.574219 L 303.132812 350.574219 L 303.132812 12.398438 Z M 71.441406 12.398438 " fill-rule="nonzero"/></g></g></svg>